<?xml version="1.0" encoding="utf-8"?>
<!-- Generator: Adobe Illustrator 24.3.0, SVG Export Plug-In . SVG Version: 6.00 Build 0)  -->
<svg version="1.1" id="Layer_1" xmlns="http://www.w3.org/2000/svg" xmlns:xlink="http://www.w3.org/1999/xlink" x="0px" y="0px"
	 viewBox="0 0 216 155.5" style="enable-background:new 0 0 216 155.5;" xml:space="preserve">
<path d="M156.3,23c3,0,5.1,0.9,6.3,2.7c1.2,1.8,1.8,4.3,1.8,7.3c0,1.4-0.1,3.3-0.4,5.6c-0.3,2.4-0.6,4.8-1,7.4c-0.3,2.6-0.7,5-1,7.1
	c-0.3,2.1-0.4,3.7-0.4,4.7c0,0.9,0.1,1.5,0.4,1.8c0.3,0.3,0.6,0.4,0.9,0.4c0.7,0,1.4-0.5,2.1-1.5c0.7-1,1.4-2.8,2.2-5.4l4.7,1.4
	c-0.2,1.2-0.7,2.6-1.3,4.2c-0.7,1.6-1.5,3-2.6,4.5c-1.1,1.4-2.4,2.6-3.9,3.5c-1.5,0.9-3.3,1.4-5.2,1.4c-3.2,0-5.4-0.9-6.5-2.6
	c-1.2-1.7-1.8-4.1-1.8-7.2c0-1.7,0.1-3.7,0.4-6c0.3-2.3,0.6-4.7,1-7.1c0.4-2.4,0.7-4.7,1-6.8c0.3-2.1,0.3-4.3,0.3-5.6
	c0-1.2,0-5.1-1.2-9.2C151.5,22.7,154.3,23,156.3,23z M159.3,2.1c1.9,0,3.4,0.7,4.6,2.1s1.7,3.1,1.6,5.1c-0.1,2-0.7,3.6-2,5
	c-1.3,1.4-2.9,2-4.8,2c-2,0-3.5-0.7-4.7-2c-1.2-1.4-1.7-3-1.7-5c0.1-2,0.9-3.7,2.3-5.1C156.1,2.8,157.6,2.1,159.3,2.1z M118.5,67.2
	c-0.1-1.2-0.2-2.1-0.2-2.6c0-0.5,0-1,0-1.6c0-1.2,0.1-2.7,0.2-4.4s0.3-3.5,0.6-5.5c0.2-2,0.5-3.9,0.7-5.8c0.3-2.1,0.6-4.1,0.8-5.9
	c0.3-1.9,0.5-3.5,0.6-5c0.1-1.4,0.2-2.5,0.2-3.2c0-1-0.1-1.6-0.4-1.9c-0.3-0.3-0.5-0.4-0.8-0.4c-0.6,0-1.3,0.5-2,1.5
	c-0.7,1-1.4,2.8-2.2,5.4l-4.8-1.4c0.3-1.2,0.7-2.6,1.2-4.2c0.5-1.6,1.2-3,2.2-4.5c0.9-1.4,2-2.6,3.4-3.5c1.3-0.9,2.9-1.4,4.8-1.4
	c1.8,0,3.5,0.6,5,1.6c1.5,1.1,2.3,3.2,2.3,6.2c0,0.9-0.1,2-0.2,3.3c-0.1,1.3-0.4,2.7-0.6,4.4h0.1c1.6-4.4,3.2-7.7,4.8-9.9
	c1.6-2.2,3.3-3.7,4.9-4.5c1.6-0.8,3.1-1.2,4.5-1.2c2.2,0,4,0.6,5.3,1.8c1.3,1.2,2,2.8,2,4.8c0,1.5-0.5,2.9-1.6,4.1
	c-1.1,1.2-2.5,1.8-4.2,1.8c-1.3,0-2.4-0.4-3.4-1.2c-1-0.8-1.4-1.9-1.4-3.3c-1-0.1-2,0.4-3,1.7c-1,1.2-2,2.9-2.9,5.1
	c-0.9,2.2-1.7,4.6-2.4,7.2c-0.7,2.7-1.3,5.4-1.7,8.1c-0.4,2.8-0.6,5.4-0.6,7.9c0,0.8,0,1.8,0.1,3.2c0.1,1.4,0.1,2.4,0.2,3.1H118.5z
	 M179.5,68.2c-2.9,0-5.3-0.7-7.2-2.2s-3.3-3.4-4.2-5.9c-0.9-2.5-1.4-5.3-1.4-8.4c0-5.5,0.9-10.4,2.6-14.7c1.7-4.3,4.3-7.7,7.9-10.2
	c3.6-2.5,8.1-3.7,13.6-3.7c0.4,0,1.1,0,2.1,0c1,0,1.7,0.1,2.1,0.1c0.3-2.7,0.5-4.8,0.6-6.3c0.1-1.6,0.3-2.8,0.4-3.7
	c0.1-0.9,0.2-1.7,0.3-2.3c-0.9,0.1-2,0.1-3.2,0.1c-1.2,0-2.2,0.1-2.8,0.1l0.3-6.6c2.7,0,5-0.1,6.8-0.4c1.8-0.3,3.2-0.6,4.3-1
	c1.1-0.4,1.8-0.8,2.2-1.1h4.7c-0.5,4.6-1.1,9.2-1.6,13.9c-0.5,4.6-1.1,9.2-1.6,13.9c-0.4,3.9-0.8,7.7-1.3,11.3
	c-0.5,3.6-0.8,6.9-1.1,9.8c-0.3,2.9-0.4,5.2-0.4,6.9c0,1,0.1,1.7,0.4,2c0.3,0.3,0.6,0.5,0.9,0.5c0.6,0,1.3-0.5,2-1.5
	c0.7-1,1.4-2.8,2.2-5.4l4.8,1.4c-0.2,1.2-0.6,2.6-1.2,4.2c-0.6,1.6-1.3,3-2.3,4.5c-0.9,1.4-2.1,2.6-3.4,3.5c-1.4,0.9-3,1.4-4.9,1.4
	c-1.8,0-3.5-0.5-4.8-1.6c-1.4-1.1-2.1-3.2-2.1-6.2c0-1.2,0-2.1,0.1-2.7c0.1-0.7,0.1-1.5,0.3-2.5h-0.1c-1.4,3.4-2.9,6.1-4.6,8
	c-1.7,1.9-3.4,3.2-5.1,4S181,68.2,179.5,68.2z M182.7,60.3c1.4,0,2.8-0.7,3.9-2.2c1.2-1.4,2.3-3.4,3.2-6c1-2.6,1.8-5.5,2.5-8.9
	c0.4-2.1,0.7-4.3,1-6.6c0.3-2.3,0.5-4.7,0.8-7.2c-0.4-0.2-1.1-0.3-2.2-0.5c-1-0.1-1.8-0.2-2.4-0.2c-2,0-3.6,0.6-4.9,1.7
	c-1.3,1.1-2.4,2.6-3.2,4.4c-0.8,1.8-1.4,3.7-1.9,5.8c-0.4,2.1-0.7,4.1-0.9,6c-0.1,1.9-0.2,3.6-0.2,5c0,2.9,0.4,5.1,1.2,6.6
	C180.4,59.6,181.4,60.3,182.7,60.3z M15.9,23c3,0,5.1,0.9,6.3,2.7C23.4,27.5,24,30,24,33c0,1.4-0.1,3.3-0.4,5.6
	c-0.3,2.4-0.6,4.8-1,7.4c-0.3,2.6-0.7,5-1,7.1c-0.3,2.1-0.4,3.7-0.4,4.7c0,0.9,0.1,1.5,0.4,1.8c0.3,0.3,0.6,0.4,0.9,0.4
	c0.7,0,1.4-0.5,2.1-1.5c0.7-1,1.4-2.8,2.2-5.4l4.7,1.4c-0.2,1.2-0.7,2.6-1.3,4.2c-0.7,1.6-1.5,3-2.6,4.5c-1.1,1.4-2.4,2.6-3.9,3.5
	c-1.5,0.9-3.3,1.4-5.2,1.4c-3.2,0-5.4-0.9-6.5-2.6c-1.2-1.7-1.8-4.1-1.8-7.2c0-1.7,0.1-3.7,0.4-6c0.3-2.3,0.6-4.7,1-7.1
	c0.4-2.4,0.7-4.7,1-6.8c0.3-2.1,0.4-3.9,0.4-5.2c0-1-0.1-1.6-0.4-1.9c-0.3-0.3-0.6-0.4-1-0.4c-0.6,0-1.3,0.5-2,1.5
	c-0.7,1-1.4,2.8-2.2,5.4l-4.7-1.4c0.2-1.2,0.7-2.6,1.4-4.2c0.7-1.6,1.6-3,2.7-4.5c1.1-1.4,2.5-2.6,4-3.5C12.2,23.5,14,23,15.9,23z
	 M19,2.1c1.9,0,3.4,0.7,4.6,2.1c1.2,1.4,1.7,3.1,1.6,5.1c-0.1,2-0.7,3.6-2,5c-1.3,1.4-2.9,2-4.8,2c-2,0-3.5-0.7-4.7-2
	c-1.2-1.4-1.7-3-1.7-5c0.1-2,0.9-3.7,2.3-5.1S17.2,2.1,19,2.1z M64.4,68.2c-3.2,0-5.3-0.9-6.5-2.6c-1.1-1.7-1.7-4.1-1.7-7.2
	c0-1.7,0.1-3.7,0.3-5.8c0.2-2.2,0.5-4.4,0.7-6.6c0.3-2.3,0.5-4.4,0.7-6.4c0.2-2,0.3-3.6,0.3-5c0-0.9-0.1-1.6-0.3-2.1
	c-0.2-0.5-0.4-0.9-0.8-1.2C57,31.1,56.5,31,56,31c-1,0-2.1,0.6-3.2,1.9c-1.1,1.3-2.2,3-3.2,5.2s-2,4.6-2.8,7.2
	c-0.8,2.6-1.5,5.3-1.9,8.1C44.3,56,44,58.6,44,61c0,0.8,0,1.8,0.1,3.2c0.1,1.4,0.1,2.4,0.2,3.1H33.1c-0.1-1.2-0.2-2.1-0.2-2.6
	c0-0.5,0-1,0-1.6c0-1.2,0.1-2.6,0.2-4.3c0.1-1.6,0.3-3.4,0.6-5.4c0.2-1.9,0.5-3.9,0.7-5.8c0.2-1.6,0.4-3.1,0.6-4.5
	c0.2-1.5,0.4-2.9,0.6-4.2c0.2-1.3,0.3-2.4,0.4-3.4c0.1-1,0.1-1.7,0.1-2.3c0-1-0.1-1.6-0.4-1.9c-0.3-0.3-0.5-0.4-0.8-0.4
	c-0.6,0-1.3,0.5-2,1.5c-0.7,1-1.4,2.8-2.2,5.4l-4.8-1.4c0.3-1.2,0.7-2.6,1.2-4.2c0.5-1.6,1.2-3,2.2-4.5c0.9-1.4,2-2.6,3.4-3.5
	c1.3-0.9,2.9-1.4,4.8-1.4c1.3,0,2.5,0.2,3.6,0.7c1.1,0.5,2,1.3,2.7,2.4c0.7,1.1,1,2.7,1,4.8c0,1.1-0.1,2-0.2,2.7
	c-0.1,0.7-0.2,1.5-0.3,2.5h0.1c1.4-3.5,2.9-6.1,4.5-8.1c1.6-1.9,3.3-3.2,5.1-3.9c1.8-0.7,3.5-1.1,5.2-1.1c2.5,0,4.5,0.6,6,1.6
	c1.5,1.1,2.6,2.6,3.3,4.6c0.7,2,1.1,4.3,1.1,7.1c0,2.1-0.2,4.4-0.5,6.9c-0.3,2.5-0.7,5.1-1.1,7.6c-0.4,2.5-0.6,4.9-0.6,7
	c0,0.9,0.1,1.5,0.4,1.8c0.3,0.3,0.6,0.4,0.9,0.4c0.6,0,1.3-0.5,2-1.5c0.7-1,1.4-2.8,2.2-5.4l4.7,1.4c-0.2,1.2-0.7,2.6-1.3,4.2
	c-0.7,1.6-1.5,3-2.6,4.5c-1.1,1.4-2.4,2.6-3.9,3.5C68.1,67.7,66.3,68.2,64.4,68.2z M85.6,90.7c-2.1,0-4.1-0.2-5.8-0.6
	c-1.7-0.4-3.2-0.9-4.5-1.7c-1.2-0.8-2.2-1.7-2.9-2.8c-0.7-1.1-1-2.4-1-3.9c0-0.9,0.2-1.8,0.6-2.8c0.4-1,1-1.8,1.9-2.5
	c0.8-0.7,1.9-1,3.3-1c1.6,0,2.9,0.5,3.9,1.5c1,1,1.6,2.3,1.6,4c0,0.9-0.2,1.8-0.5,2.6c0.3,0.4,0.9,0.8,1.8,1
	c0.9,0.3,1.7,0.4,2.3,0.4c2.3,0,4.1-0.6,5.4-1.9c1.3-1.3,2.2-3.1,2.8-5.3c0.6-2.3,1.1-4.8,1.4-7.6c0.4-3.1,0.8-5.7,1.3-8
	c0.4-2.3,1-4.5,1.7-6.8h-0.1c-1.1,2.5-2.2,4.6-3.4,6.3c-1.2,1.7-2.4,3-3.6,3.9c-1.2,1-2.5,1.6-3.8,2c-1.3,0.4-2.6,0.6-3.9,0.6
	c-2.1,0-4-0.6-5.8-1.7c-1.8-1.1-3.3-2.9-4.4-5.2c-1.1-2.3-1.7-5.3-1.7-8.9c0-4,0.5-7.7,1.4-11.3c1-3.5,2.5-6.7,4.5-9.4
	c2-2.7,4.7-4.8,7.8-6.4c3.2-1.6,7-2.3,11.3-2.3c1.6,0,3.6,0.2,6.1,0.5c2.5,0.3,4.8,0.8,7.1,1.3c-0.1,2.1-0.3,4.8-0.5,8.1
	c-0.2,3.3-0.4,6.9-0.7,10.7c-0.3,3.8-0.5,7.5-0.8,11c-0.3,3.5-0.5,6.6-0.8,9.1c-0.5,5.4-1.5,10.2-3.1,14.2c-1.6,4-3.9,7.2-7,9.4
	C94.6,89.6,90.6,90.7,85.6,90.7z M87.7,60.5c1.3,0,2.5-0.6,3.6-1.9c1.1-1.3,2.1-3.1,3-5.3c0.9-2.2,1.7-4.7,2.4-7.4
	c0.7-2.7,1.3-5.5,1.7-8.4c0.5-2.9,0.8-5.6,0.9-8.2c-0.3-0.1-0.9-0.2-1.7-0.3c-0.8-0.1-1.5-0.2-2.3-0.2c-2,0-3.7,0.5-5.1,1.6
	c-1.4,1.1-2.6,2.6-3.5,4.7c-0.9,2.1-1.6,4.6-2,7.6c-0.4,3-0.6,6.4-0.6,10.3c0,1.6,0.2,2.9,0.5,4.1c0.3,1.2,0.8,2,1.3,2.6
	C86.4,60.2,87,60.5,87.7,60.5z M115.7,130c-16-6.5-32.4-12.1-49.3-15.9c-8.4-1.9-17-3.3-25.7-3.6c-4.3-0.1-8.7,0.1-13,0.8
	c-4.3,0.8-8.6,2.2-12.3,4.7c-1.8,1.3-3.5,2.8-4.8,4.7c-1.3,1.8-2.3,3.9-3,6c-0.7,2.1-1,4.4-1.1,6.6c-0.1,2.2-0.1,4.4,0.4,6.7
	c0.4,2.2,1.3,4.4,2.8,6.2c1.4,1.8,3.4,3.2,5.5,4.1c4.3,1.7,8.8,1.9,13.2,1.6c4.4-0.3,8.7-1,12.9-2c4.2-1,8.4-2.1,12.6-3.4
	c8.3-2.6,16.4-5.6,24.5-8.7c16.1-6.3,31.9-13.3,47.8-19.9c8-3.3,15.9-6.6,24-9.7c8-3.1,16.1-6,24.4-8.1c4.1-1,8.3-1.9,12.4-2.2
	c2.1-0.1,4.1-0.1,6,0.2c1.9,0.4,3.7,1.1,4.9,2.3c2.5,2.4,2.4,6.9,1.6,10.7c-0.4,1.9-1.2,3.7-2.4,5.1c-1.1,1.5-2.7,2.7-4.4,3.5
	c-3.5,1.7-7.7,2.3-11.8,2.4c-4.2,0.1-8.4-0.3-12.6-0.8c-8.4-1.2-16.8-3.1-25.1-5.3c-16.6-4.4-33-9.8-49.5-15
	c-8.3-2.6-16.5-5.1-24.9-7.4c-8.4-2.3-16.8-4.4-25.4-5.9c-4.3-0.7-8.7-1.3-13.1-1.6c-4.4-0.2-9-0.1-13.6,0.9
	c-2.3,0.5-4.6,1.3-6.7,2.5c-2.1,1.2-4.1,3-5.6,5.1c-1.4,2.1-2.3,4.5-2.8,6.9c-0.4,2.4-0.5,4.7-0.3,7.1c0.2,2.4,0.7,4.8,1.7,7.1
	c0.9,2.3,2.3,4.4,4,6.2c1.7,1.8,3.6,3.3,5.6,4.5c2,1.2,4.2,2.1,6.4,2.9c4.4,1.5,8.9,2.2,13.4,2.5c4.5,0.3,8.9,0.2,13.4-0.1
	c8.8-0.7,17.5-2.5,26-4.8c8.5-2.4,16.7-5.4,24.7-9c4-1.8,8-3.8,11.8-5.8l0.7-0.4l0.7-0.3l1.4-0.7l2.9-1.4l5.8-2.8
	c7.8-3.6,15.6-7.1,23.6-10.4c7.9-3.3,15.9-6.4,24-9.2c4-1.4,8.1-2.6,12.2-3.7c4.1-1.1,8.2-2,12.1-2.4l-0.7-7.1
	c-4.6,0.5-9,1.6-13.2,2.7c-4.3,1.2-8.4,2.5-12.6,4c-8.3,2.9-16.3,6.1-24.3,9.5c-8,3.4-15.9,7-23.7,10.7l-5.9,2.8l-2.9,1.4l-1.5,0.7
	l-0.8,0.4l-0.7,0.4c-3.8,2.1-7.5,4-11.4,5.8c-7.7,3.6-15.7,6.6-23.8,9c-8.1,2.4-16.4,4.1-24.8,4.9c-4.2,0.4-8.4,0.5-12.5,0.2
	c-4.1-0.3-8.2-0.9-12-2.1c-3.8-1.2-7.3-3.1-9.9-5.9c-1.3-1.4-2.3-2.9-3.1-4.6c-0.7-1.7-1.2-3.6-1.4-5.5c-0.3-3.9,0.2-7.9,2.2-10.8
	c1.9-3,5.4-4.7,9.2-5.6c3.9-0.9,8-1,12.2-0.8c4.2,0.2,8.4,0.7,12.6,1.4c8.4,1.4,16.7,3.4,25,5.7c8.3,2.2,16.6,4.7,24.8,7.2
	c16.5,5,33,10.3,49.8,14.6c8.4,2.1,16.9,4.1,25.6,5.2c4.3,0.6,8.8,0.9,13.2,0.8c4.4-0.2,9-0.8,13.3-2.9c2.1-1.1,4.1-2.6,5.6-4.5
	c1.5-1.9,2.5-4.2,3-6.5c0.5-2.3,0.7-4.6,0.4-7c-0.1-1.2-0.4-2.4-0.9-3.6c-0.5-1.2-1.2-2.3-2.2-3.2c-1.9-1.9-4.4-2.7-6.7-3.1
	c-2.3-0.4-4.6-0.4-6.9-0.2c-4.5,0.3-8.8,1.3-13,2.4c-8.5,2.3-16.6,5.3-24.7,8.4c-8.1,3.2-16,6.5-24,10
	c-15.9,6.8-31.6,13.9-47.6,20.3c-8,3.2-16.1,6.2-24.2,8.9c-4.1,1.3-8.2,2.5-12.4,3.5c-4.2,1-8.4,1.7-12.6,2.1
	c-4.2,0.3-8.5,0.1-12.3-1.4c-1.9-0.8-3.6-1.9-4.8-3.5c-1.3-1.5-2.1-3.5-2.5-5.5c-0.4-2-0.5-4.1-0.4-6.2c0.1-2.1,0.4-4.2,1-6.2
	c1.2-4,3.7-7.5,7.1-9.9c3.4-2.4,7.5-3.8,11.7-4.6c4.2-0.8,8.5-1,12.8-0.9c8.6,0.2,17.1,1.5,25.5,3.3c16.8,3.6,33.3,9.1,49.3,15.4
	c16,6.4,31.8,13.5,46.9,21.9C147.3,143.9,131.7,136.6,115.7,130z"/>
</svg>
