<svg id="Layer_1" data-name="Layer 1" xmlns="http://www.w3.org/2000/svg" viewBox="0 0 172.91 115.1"><defs><style>.cls-1{fill:#9e7f50;}</style></defs><path class="cls-1" d="M113.52,23.86a4.06,4.06,0,0,1-.94-2.79,4.21,4.21,0,0,1,1.28-2.84,3.76,3.76,0,0,1,2.62-1.18,3.18,3.18,0,0,1,2.57,1.18,3.81,3.81,0,0,1,.89,2.84,4.14,4.14,0,0,1-1.12,2.79,3.69,3.69,0,0,1-5.3,0ZM93.55,34c.39-.56.78-.84,1.12-.84a.53.53,0,0,1,.44.22,1.47,1.47,0,0,1,.23,1.06c0,.4-.07,1-.12,1.79S95,38,94.89,39s-.34,2.23-.45,3.29-.23,2.17-.39,3.24-.22,2.13-.33,3.07A20.38,20.38,0,0,0,93.61,51v.89c0,.26,0,.72.1,1.32h6.35a13.06,13.06,0,0,1-.11-1.73V49.73a32.48,32.48,0,0,1,.33-4.41,46.09,46.09,0,0,1,1-4.52,36.66,36.66,0,0,1,1.31-4,11.37,11.37,0,0,1,1.66-2.89,1.87,1.87,0,0,1,1.67-.95,2.2,2.2,0,0,0,.78,1.84,2.94,2.94,0,0,0,1.9.67,3,3,0,0,0,2.34-1,3.21,3.21,0,0,0,.89-2.29,3.48,3.48,0,0,0-1.11-2.68,4.19,4.19,0,0,0-3-1,5.57,5.57,0,0,0-2.51.67,8,8,0,0,0-2.73,2.51A23.11,23.11,0,0,0,99.8,37.2h-.06c.12-1,.29-1.72.34-2.45s.11-1.34.11-1.85c0-1.67-.45-2.84-1.28-3.45a5,5,0,0,0-2.79-.9,4.66,4.66,0,0,0-2.68.78,6.48,6.48,0,0,0-1.9,2,9.6,9.6,0,0,0-1.23,2.51c-.27.89-.5,1.67-.66,2.34l2.67.78A12.47,12.47,0,0,1,93.55,34Zm.17,19.41v-.13h-.06Zm52.72-6.86a12.75,12.75,0,0,1-.67,2.34,12.16,12.16,0,0,1-1.29,2.51,6.75,6.75,0,0,1-1.89,2,5,5,0,0,1-2.74.78,4.15,4.15,0,0,1-2.68-.89c-.78-.61-1.17-1.78-1.17-3.46a12.54,12.54,0,0,1,.06-1.5c0-.47.09-.94.17-1.4h-.06a15.52,15.52,0,0,1-2.57,4.46,9,9,0,0,1-2.84,2.24,7.32,7.32,0,0,1-3,.39h0a6.27,6.27,0,0,1-4-1.23,7,7,0,0,1-1.91-2.3c-.17.26-.34.53-.53.79a7.82,7.82,0,0,1-2.17,2,5.55,5.55,0,0,1-2.9.79c-1.79,0-3-.51-3.63-1.45a7,7,0,0,1-1-4,26.79,26.79,0,0,1,.22-3.35c.17-1.28.34-2.62.56-4s.39-2.62.56-3.79a21.88,21.88,0,0,0,.16-3.13,18.17,18.17,0,0,0-.67-5.13c-.28-.58,1.28-.42,2.4-.42a3.9,3.9,0,0,1,3.47,1.51,7.17,7.17,0,0,1,1,4.07,23.42,23.42,0,0,1-.23,3.13c-.16,1.34-.33,2.68-.55,4.13s-.4,2.79-.56,4a20.9,20.9,0,0,0-.23,2.62,1.47,1.47,0,0,0,.23,1,.69.69,0,0,0,.5.23q.59,0,1.17-.84a12.26,12.26,0,0,0,1.06-2.47c0-.45-.07-.91-.07-1.36a22.32,22.32,0,0,1,1.45-8.21,12.31,12.31,0,0,1,4.42-5.72,13.05,13.05,0,0,1,7.59-2h1.22c.55,0,1,.06,1.17.06.17-1.51.28-2.68.33-3.52s.17-1.56.23-2.06.11-1,.16-1.29a17.54,17.54,0,0,1-1.78.06c-.67,0-1.23.05-1.56.05l.16-3.68a24,24,0,0,0,3.8-.22,15,15,0,0,0,2.4-.56,4.5,4.5,0,0,0,1.22-.61H144c-.28,2.56-.62,5.13-.9,7.75s-.61,5.14-.89,7.76c-.22,2.17-.45,4.29-.72,6.3s-.45,3.85-.62,5.47a38.05,38.05,0,0,0-.22,3.85,1.82,1.82,0,0,0,.22,1.12.83.83,0,0,0,.5.27c.34,0,.73-.27,1.12-.83a11.71,11.71,0,0,0,1.23-3ZM135.87,32.27a6.43,6.43,0,0,0-1.23-.27c-.56-.06-1-.12-1.34-.12a4.08,4.08,0,0,0-2.73.95,6.85,6.85,0,0,0-1.79,2.46,19.07,19.07,0,0,0-1.06,3.23c-.22,1.17-.39,2.29-.5,3.35a26.05,26.05,0,0,0-.11,2.79,8,8,0,0,0,.67,3.68,2,2,0,0,0,1.75,1.18,2.7,2.7,0,0,0,2.15-1.22A10.23,10.23,0,0,0,133.47,45a30.17,30.17,0,0,0,1.39-5c.23-1.17.39-2.4.56-3.68S135.7,33.65,135.87,32.27ZM33,34c.39-.56.78-.84,1.12-.84a.72.72,0,0,1,.56.22,1.58,1.58,0,0,1,.22,1.06,21.92,21.92,0,0,1-.22,2.91c-.17,1.17-.33,2.41-.56,3.79s-.39,2.72-.56,4a26.79,26.79,0,0,0-.22,3.35,7,7,0,0,0,1,4c.63.94,1.84,1.45,3.63,1.45a5.55,5.55,0,0,0,2.9-.79,8,8,0,0,0,2.17-2,11.87,11.87,0,0,0,1.45-2.51,12.19,12.19,0,0,0,.73-2.34l-2.62-.78a11.71,11.71,0,0,1-1.23,3q-.57.84-1.17.84a.69.69,0,0,1-.5-.23,1.47,1.47,0,0,1-.23-1,20.9,20.9,0,0,1,.23-2.62c.16-1.21.32-2.55.55-4s.39-2.79.56-4.13A21.87,21.87,0,0,0,41,34.29a7.17,7.17,0,0,0-1-4.07,3.9,3.9,0,0,0-3.51-1.51,6.49,6.49,0,0,0-2.86.7,8.5,8.5,0,0,0-2.23,2,13.28,13.28,0,0,0-1.51,2.51,10.55,10.55,0,0,0-.78,2.34l2.62.78A12.47,12.47,0,0,1,33,34ZM37.87,25a3.5,3.5,0,0,0,2.68-1.12,4.15,4.15,0,0,0,1.11-2.79,3.81,3.81,0,0,0-.89-2.84,3.16,3.16,0,0,0-2.56-1.18,3.58,3.58,0,0,0-2.65,1.18,4.23,4.23,0,0,0-1.28,2.84,4.08,4.08,0,0,0,1,2.79A3.41,3.41,0,0,0,37.87,25Zm6.86,12-2.67-.78c.16-.67.39-1.45.66-2.34A9.6,9.6,0,0,1,44,31.33a6.48,6.48,0,0,1,1.9-2,4.66,4.66,0,0,1,2.68-.78,4.73,4.73,0,0,1,2,.39A3.48,3.48,0,0,1,52,30.28,5,5,0,0,1,52.59,33a11,11,0,0,1-.11,1.51c-.06.39-.11.83-.17,1.39h.06a17.7,17.7,0,0,1,2.51-4.52,7.21,7.21,0,0,1,2.84-2.17,7.86,7.86,0,0,1,2.9-.62,5.89,5.89,0,0,1,3.35.9A5.1,5.1,0,0,1,65.81,32a11.58,11.58,0,0,1,.62,4,33.07,33.07,0,0,1-.28,3.85c-.17,1.4-.39,2.85-.62,4.24A25.58,25.58,0,0,0,65.2,48a1.47,1.47,0,0,0,.22,1,.73.73,0,0,0,.5.23c.34,0,.73-.28,1.12-.84A11.8,11.8,0,0,0,68,46.28a12,12,0,0,1,0-1.34,26.19,26.19,0,0,1,.78-6.3,16.42,16.42,0,0,1,2.51-5.25,12.43,12.43,0,0,1,4.35-3.57,14,14,0,0,1,6.3-1.28,29.77,29.77,0,0,1,3.41.28,38.5,38.5,0,0,1,4,.72c-.06,1.17-.17,2.68-.28,4.52s-.22,3.85-.39,6-.28,4.19-.45,6.14-.28,3.68-.44,5.08A28.71,28.71,0,0,1,86,59.2a11.37,11.37,0,0,1-3.91,5.24,10.12,10.12,0,0,1-6.72,2,14.7,14.7,0,0,1-3.23-.33,8.39,8.39,0,0,1-2.51-1A5.47,5.47,0,0,1,68,63.64a4.08,4.08,0,0,1-.56-2.18,4.16,4.16,0,0,1,.34-1.56,3.18,3.18,0,0,1,1.06-1.39A2.67,2.67,0,0,1,70.68,58a2.91,2.91,0,0,1,2.17.84A3,3,0,0,1,73.74,61a4,4,0,0,1-.27,1.45,1.79,1.79,0,0,0,1,.56,4.36,4.36,0,0,0,1.28.22,4.11,4.11,0,0,0,3-1.06,6.61,6.61,0,0,0,1.56-3A27.75,27.75,0,0,0,81.09,55c.22-1.73.45-3.18.72-4.46a34.78,34.78,0,0,1,1-3.8,19.94,19.94,0,0,1-1.9,3.52,9.63,9.63,0,0,1-2,2.18,6,6,0,0,1-2.12,1.11,7.57,7.57,0,0,1-2.17.34,6.15,6.15,0,0,1-3.24-1,6.78,6.78,0,0,1-2.22-2.48c-.15.22-.29.45-.45.67a8,8,0,0,1-2.17,2,5.09,5.09,0,0,1-3,.9c-1.79,0-3-.5-3.63-1.45a7.36,7.36,0,0,1-.95-4c0-.94.06-2.06.17-3.23s.28-2.46.39-3.68.28-2.46.39-3.57.17-2,.17-2.79A3.16,3.16,0,0,0,59.91,34a1.34,1.34,0,0,0-.45-.67c-.05-.11-.33-.16-.61-.16a2.48,2.48,0,0,0-1.79,1.06,12.36,12.36,0,0,0-1.78,2.88,33.46,33.46,0,0,0-1.56,4,30.15,30.15,0,0,0-1.06,4.51,19.51,19.51,0,0,0-.51,4.24c0,.45,0,1,.06,1.79s.06,1.34.11,1.73H46.07C46,52.74,46,52.24,46,52v-.89c0-.67.06-1.45.11-2.4a29.66,29.66,0,0,1,.34-3c.17-1.1.28-2.17.39-3.23.11-.89.22-1.73.33-2.51s.23-1.62.34-2.35.16-1.33.22-1.89a9.29,9.29,0,0,0,.06-1.29,1.47,1.47,0,0,0-.23-1.06.53.53,0,0,0-.44-.22c-.34,0-.73.28-1.12.84A12.47,12.47,0,0,0,44.73,37Zm29.69,8.45a9.82,9.82,0,0,0,.27,2.29,3.62,3.62,0,0,0,.73,1.45,1.44,1.44,0,0,0,1.11.49,2.59,2.59,0,0,0,2-1.06,11.21,11.21,0,0,0,1.68-3,32.07,32.07,0,0,0,1.34-4.13,39.32,39.32,0,0,0,.94-4.69A35.11,35.11,0,0,0,83,32.19,5.5,5.5,0,0,0,82,32a10.85,10.85,0,0,0-1.29-.11,4.47,4.47,0,0,0-2.84.89,6.62,6.62,0,0,0-2,2.62,16.28,16.28,0,0,0-1.12,4.24A46.08,46.08,0,0,0,74.42,45.41Zm66.66,29a11.13,11.13,0,0,1-.22,3.9,8.79,8.79,0,0,1-1.67,3.63,9.55,9.55,0,0,1-3.13,2.51,18.42,18.42,0,0,1-7.42,1.62,47.7,47.7,0,0,1-7.36-.45A122,122,0,0,1,107,82.71q-3.5-.9-7-1.89L98,81.67c-3.69,1.53-7.37,3.1-11,4.67,1.75.66,3.5,1.35,5.23,2.07a208.58,208.58,0,0,1,26.12,12.72A226.51,226.51,0,0,0,92.15,88.91c-2-.8-3.94-1.55-5.93-2.27-4.94,2.09-9.88,4.17-14.9,6.13-4.52,1.73-9,3.41-13.67,4.86-2.32.72-4.66,1.34-7,1.89a44.75,44.75,0,0,1-7.2,1.12,16.77,16.77,0,0,1-7.36-.89A8,8,0,0,1,33,97.46,7.52,7.52,0,0,1,31.46,94a15.12,15.12,0,0,1-.23-3.74,13.9,13.9,0,0,1,.62-3.68,13.15,13.15,0,0,1,.69-1.7c-.33-.29-.67-.6-1-.93a10.82,10.82,0,0,1-2.23-3.46,12.58,12.58,0,0,1-1-4,16.23,16.23,0,0,1,.17-4,11.16,11.16,0,0,1,1.56-3.85,10,10,0,0,1,3.12-2.84,13.29,13.29,0,0,1,3.74-1.39,28.86,28.86,0,0,1,7.59-.5c2.45.17,4.91.5,7.31.89,4.8.85,9.48,2,14.17,3.3s9.29,2.7,13.89,4.13l7.8,2.47.48-.23,1.62-.78,3.29-1.56q6.53-3.15,13.23-6c4.46-1.9,8.92-3.68,13.55-5.3,2.32-.84,4.6-1.56,7-2.23a50.18,50.18,0,0,1,7.37-1.51l.39,4a43.34,43.34,0,0,0-6.75,1.34c-2.29.61-4.58,1.28-6.81,2.06-4.52,1.57-8.93,3.34-13.39,5.14s-8.81,3.8-13.17,5.8l-1.77.85q4.16,1.31,8.33,2.52c3.21-1.38,6.42-2.71,9.68-4a142.35,142.35,0,0,1,13.78-4.69,40,40,0,0,1,7.26-1.34,15,15,0,0,1,3.85.11,6.79,6.79,0,0,1,3.74,1.73,4.88,4.88,0,0,1,1.22,1.79A6,6,0,0,1,141.08,74.4ZM32,79.23a10.45,10.45,0,0,0,1.73,2.57l.55.49a10.9,10.9,0,0,1,1.91-1.68A18,18,0,0,1,43.06,78a40,40,0,0,1,7.25-.45,77.74,77.74,0,0,1,14.34,2q4,.94,8,2.08c2.53-.93,5-2,7.47-3.08,1.58-.72,3.09-1.49,4.6-2.29l-5.52-1.69c-4.57-1.38-9.2-2.78-13.83-4A132.37,132.37,0,0,0,51.45,67.4a58.54,58.54,0,0,0-7-.78,24.73,24.73,0,0,0-6.81.44,8,8,0,0,0-5.13,3.13,9.46,9.46,0,0,0-1.23,6A11.83,11.83,0,0,0,32,79.23Zm32.64,1.09a76.48,76.48,0,0,0-14.23-1.84,33.52,33.52,0,0,0-7.14.5,16.83,16.83,0,0,0-6.51,2.6A10.13,10.13,0,0,0,35.14,83a12.68,12.68,0,0,0,4.14,2.11A29.71,29.71,0,0,0,46,86.38a41.94,41.94,0,0,0,7-.11,74,74,0,0,0,13.84-2.73c1.58-.46,3.14-1,4.69-1.53C69.25,81.4,67,80.84,64.65,80.32ZM84.39,86c-2.4-.85-4.83-1.64-7.27-2.38a97.25,97.25,0,0,1-9.41,3.18,80.16,80.16,0,0,1-14.5,2.68,54.92,54.92,0,0,1-7.48,0,28.81,28.81,0,0,1-7.47-1.39,21.61,21.61,0,0,1-3.57-1.62,14.48,14.48,0,0,1-1.31-.9,12,12,0,0,0-.61,1.54A15.6,15.6,0,0,0,32.43,94a6.89,6.89,0,0,0,1.4,3.07,6.42,6.42,0,0,0,2.68,2,15.68,15.68,0,0,0,6.86.78,51.64,51.64,0,0,0,7-1.17c2.34-.56,4.63-1.23,6.92-2,4.5-1.54,9-3.21,13.5-5S79.88,87.94,84.39,86Zm13.43-5.81c-2.72-.79-5.44-1.6-8.14-2.43l0,0-.78.39-.39.17-.39.22c-2.12,1.12-4.35,2.24-6.59,3.24-1.12.51-2.26,1-3.41,1.46,2.37.75,4.72,1.56,7.06,2.41,4.06-1.76,8.12-3.54,12.2-5.28ZM138,71.91a5.41,5.41,0,0,0-2.74-1.29,17.72,17.72,0,0,0-3.34-.11A42.88,42.88,0,0,0,125,71.74a119.38,119.38,0,0,0-13.62,4.52c-2.69,1-5.34,2.1-8,3.19,1.38.39,2.75.78,4.12,1.15a124.11,124.11,0,0,0,14,3,49.66,49.66,0,0,0,7,.44,16.19,16.19,0,0,0,6.59-1.34,6.9,6.9,0,0,0,3.79-4.79C139.33,75.76,139.38,73.25,138,71.91Z"/></svg>